<?xml version="1.0" encoding="utf-8"?>
<!-- Generator: Adobe Illustrator 18.0.0, SVG Export Plug-In . SVG Version: 6.00 Build 0)  -->
<!DOCTYPE svg PUBLIC "-//W3C//DTD SVG 1.1//EN" "http://www.w3.org/Graphics/SVG/1.1/DTD/svg11.dtd">
<svg version="1.1" id="Layer_1" xmlns="http://www.w3.org/2000/svg" xmlns:xlink="http://www.w3.org/1999/xlink" x="0px" y="0px"
	 viewBox="0 0 113.4 113.4" enable-background="new 0 0 113.4 113.4" xml:space="preserve">
<radialGradient id="SVGID_1_" cx="32.9407" cy="27.9429" r="56.694" gradientUnits="userSpaceOnUse">
	<stop  offset="0" style="stop-color:#FECC53"/>
	<stop  offset="1" style="stop-color:#FEA84A"/>
</radialGradient>
<path fill="url(#SVGID_1_)" d="M81.4,107.7c-28.2,13.6-62.1,1.8-75.7-26.4C-8,53.2,3.8,19.3,32,5.7C60.2-8,94.1,3.8,107.7,32
	C121.3,60.2,109.5,94.1,81.4,107.7z"/>
<path fill="#FEA138" d="M107.7,32c-1.9-4-4.3-7.7-7-11c13,28,1.2,61.4-26.7,74.9c-24.2,11.7-52.5,4.6-68.7-15.4
	c0.1,0.3,0.2,0.5,0.3,0.8c13.6,28.2,47.5,40,75.7,26.4C109.5,94.1,121.3,60.2,107.7,32z"/>
</svg>
