<?xml version="1.0" encoding="utf-8"?>
<!-- Generator: Adobe Illustrator 23.0.4, SVG Export Plug-In . SVG Version: 6.00 Build 0)  -->
<svg version="1.1" id="Слой_1" xmlns="http://www.w3.org/2000/svg" xmlns:xlink="http://www.w3.org/1999/xlink" x="0px" y="0px"
	 viewBox="0 0 100 100" style="enable-background:new 0 0 100 100;" xml:space="preserve">
<style type="text/css">
	.st0{fill:url(#SVGID_1_);}
</style>
<linearGradient id="SVGID_1_" gradientUnits="userSpaceOnUse" x1="50" y1="0" x2="50" y2="100">
	<stop  offset="0.598" style="stop-color:#B4DE00"/>
	<stop  offset="1" style="stop-color:#7EAA00"/>
</linearGradient>
<path class="st0" d="M77.762,8.415c-6.485-4.518-14.24-7.333-22.643-8.156c-0.154-0.016-0.31-0.021-0.465-0.036
	c-0.673-0.06-1.346-0.12-2.027-0.154C51.757,0.024,50.881,0,50,0c-0.017,0-0.033,0.001-0.05,0.001S49.917,0,49.9,0
	c-0.711,0-1.418,0.023-2.125,0.056c-0.339,0.015-0.676,0.038-1.014,0.059c-0.213,0.015-0.425,0.031-0.637,0.048
	C20.323,2.144,0,23.691,0,50c0,26.348,20.384,47.92,46.239,49.845c0.145,0.012,0.29,0.023,0.436,0.033
	c0.519,0.034,1.041,0.06,1.565,0.078c0.212,0.008,0.422,0.027,0.634,0.031c0.006-0.005,0.01-0.01,0.016-0.015
	C49.26,99.98,49.628,100,50,100c27.614,0,50-22.386,50-50C100,32.659,91.169,17.383,77.762,8.415z M40.883,55.2
	c-2.1-1.4-3.8-2.8-5.5-4.1c-1.7-1.3-3.2-2.6-5.1-3.8c-1.4-0.9-2.8-2-4.2-3.1c-2.4-1.9-4.9-3.8-7-4.5l-0.2-0.1
	c-2.7-1.1-5.6-1.6-8.4-1.6c-2.944-0.089-5.806,0.541-8.378,1.672c0.847-3.933,2.165-7.691,3.897-11.214
	c6.104-1.183,11.646-1.013,16.198,1.642c5.8,2.9,9.9,5.8,13.9,9.8c2.4,2.3,6,4.8,8.4,6c4.3,1.6,9,2.5,13.6,2.5
	c6.4,0,12.1-1.7,16.5-4.8c6.536-4.292,11.441-15.339,11.957-26.182c3.776,4.232,6.824,9.122,8.96,14.473
	C92.047,42.156,87.41,48.417,81.383,52.5c-5.9,4.4-14.3,7.2-21.6,7.2c-6.9,0-12.6-1.3-18.6-4.3L40.883,55.2z M49.872,98.997
	c1.578-1.801,2.607-4.274,4.111-6.697c0.6-1,1.2-2,1.9-2.9l0.1-0.1c4-5.3,8.1-10.7,12.2-14.9l0.2-0.2c6.3-5.2,15-8.3,23.5-8.3
	c1.798,0,2.854,0.06,4.356,0.29c-1.164,3.314-2.668,6.469-4.482,9.416c-6.236,0.06-11.963,2.557-16.057,5.794
	c-3.2,3.2-6.9,7.9-10.1,12.7c-0.5,0.749-1.015,1.62-1.865,2.927C59.374,98.303,54.768,99,50,99
	C49.957,99,49.915,98.997,49.872,98.997z"/>
</svg>
