<?xml version="1.0" encoding="utf-8"?>
<!-- Generator: Adobe Illustrator 18.0.0, SVG Export Plug-In . SVG Version: 6.00 Build 0)  -->
<!DOCTYPE svg PUBLIC "-//W3C//DTD SVG 1.1//EN" "http://www.w3.org/Graphics/SVG/1.1/DTD/svg11.dtd">
<svg version="1.1" id="Layer_1" xmlns="http://www.w3.org/2000/svg" xmlns:xlink="http://www.w3.org/1999/xlink" x="0px" y="0px"
	 viewBox="1245 0 348 401" enable-background="new 1245 0 348 401" xml:space="preserve">
<g>
	<path fill="#0F3482" d="M1276.5,393.6c29.3,17.4,70.3,3,94.4-31.5l-110.8-65.7C1240.5,333.6,1247.2,376.3,1276.5,393.6z"/>
	<path fill="#C7C7C7" d="M1364.3,370.8c2.3-2.6,4.6-5.4,6.6-8.7l-110.8-65.7c-1.6,3.4-3,6.8-4.4,10.1L1364.3,370.8z"/>
	<polygon fill="#486E81" points="1372,364.6 1257.6,296.6 1284.5,251.9 1399.3,319.7 	"/>
	<path fill="#C7C7C7" d="M1590.3,137.4l-50.1-12.1l-9.3-36.7l-54-12.6l-32.9-41l-36.6,7.7L1361,3.3l-43.1,9.7l-35.3,238.6
		l117.9,69.8L1593,178.2L1590.3,137.4z M1319.1,254.7l-0.5-0.2c-1.5-0.9-2-2.5-1.5-4.1l76.5-190.7c0.8-1.7,2.6-2.7,4.3-1.9
		c1.7,0.8,2.7,2.5,1.9,4.3l-76.5,190.8C1322.9,254.4,1321.1,255.4,1319.1,254.7z M1363.4,273.8c-0.9,1.5-2.8,2.1-4.6,1.2
		c-1.7-0.8-2.1-2.7-1.2-4.6l107-176.6c0.8-1.7,2.8-2.1,4.6-1.2c1.7,0.8,2.1,2.7,1.2,4.6L1363.4,273.8z M1397.3,296.4
		c-1,1-3,1.5-4.3,0.8l-0.5-0.2c-1.6-1.3-1.6-3.4-0.3-4.9l131.3-152.2c1.3-1.6,3.4-1.6,4.9-0.3s1.6,3.4,0.3,4.9L1397.3,296.4z"/>
</g>
</svg>
