<?xml version="1.0" encoding="utf-8"?>
<!-- Generator: Adobe Illustrator 18.0.0, SVG Export Plug-In . SVG Version: 6.00 Build 0)  -->
<!DOCTYPE svg PUBLIC "-//W3C//DTD SVG 1.1//EN" "http://www.w3.org/Graphics/SVG/1.1/DTD/svg11.dtd">
<svg version="1.1" id="Layer_1" xmlns="http://www.w3.org/2000/svg" xmlns:xlink="http://www.w3.org/1999/xlink" x="0px" y="0px"
	 viewBox="256 346 100 100" enable-background="new 256 346 100 100" xml:space="preserve">
<g>
	<circle fill="#757575" cx="306" cy="396" r="50"/>
	<g>
		<path fill="#C7C7C7" d="M333.7,399c-10.7-2.9-14.8-3.8-25.9-2.2c-9.7,14.6-12.4,20.4-36.5,31.9c5.9,6.2,13.4,10.9,21.8,13.2
			C311.4,439.7,335.2,405.9,333.7,399z"/>
		<path fill="#C7C7C7" d="M294.7,372.8l-0.8,0.6c0.2,1.4,1.1,2.8,1.3,4.1l1.1,2.1c2.6,4.3,4.4,8.6,8.8,12.7c0.7,0.7,21,0.1,28.3,2.9
			c7.9,3.1,11,4.6,17.4,9.8c0.5,0.4,1.1,1.2,1.8,1.7c0.8-3.4,1.2-7,1.2-10.7c0-5.5-0.9-10.8-2.6-15.7c-1.2-0.7-2.9-1.7-4.4-2.4
			C330.3,370,312.8,368.6,294.7,372.8z"/>
		<path fill="#C7C7C7" d="M287.7,415.6c4.3-1.4,18.4-16.9,13.9-21.9c-12.2-13.7-12.4-23.8-12.7-42.3c-5.5,2.1-10.6,5.3-14.9,9.2
			C269.5,377.5,277.2,408,287.7,415.6z"/>
		<path fill="#C7C7C7" d="M292.7,369c0.1,0,0.7,0,1.6-0.1c25.6-2.8,33.8-2.1,54.6,6.1c-7.8-15.8-24-26.8-42.9-26.8
			c-4.8,0-9.5,0.7-13.9,2.1C291.3,355.2,291.1,364.7,292.7,369z"/>
		<path fill="#C7C7C7" d="M282.8,415.4c-17.6-22.7-13.1-42.8-12.9-50.7c-7.3,8.4-11.7,19.3-11.7,31.3c0,11.2,3.8,21.4,10.3,29.6
			c3.6-0.7,9.1-3.3,11.6-4.6C284.8,418.6,285.2,418.5,282.8,415.4z"/>
		<path fill="#C7C7C7" d="M345.1,405.5c-7.1-5.2-7.7-4.8-8.7-2.2c-2.5,6.6-8.4,17-13.2,21.9c-4.7,4.9-17.7,18.1-24.5,18
			c0,0-0.1,0-0.1,0c2.4,0.4,4.9,0.6,7.4,0.6c21.2,0,39.2-13.8,45.4-33C349.8,409.1,347.3,407,345.1,405.5z"/>
	</g>
</g>
</svg>
