<svg width="207" height="43" viewBox="0 0 207 43" fill="none" xmlns="http://www.w3.org/2000/svg">
<g clip-path="url(#clip0_126_1262)">
<path d="M35.2751 5.72797L22.2879 0.340296C21.6074 0.0567341 20.8134 0.0567341 20.1329 0.340296L7.14574 5.72797C6.46519 6.01153 5.89807 6.57865 5.6145 7.2592L0.226831 20.2463C-0.0567303 20.9269 -0.0567303 21.7208 0.226831 22.4014L5.6145 35.3885C5.89807 36.0691 6.46519 36.6362 7.14574 36.9197L20.1329 42.3074C20.8134 42.591 21.6074 42.591 22.2879 42.3074L35.2751 36.9197C35.9556 36.6362 36.5227 36.0691 36.8063 35.3885L42.1372 22.4014C42.4775 21.7208 42.4775 20.9269 42.1372 20.2463L36.8063 7.2592C36.5227 6.57865 35.9556 6.01153 35.2751 5.72797Z" fill="white"/>
<path d="M32.3828 25.3504L36.2392 22.0044C37.1466 21.2104 37.4302 19.906 36.9765 18.7718L34.8214 13.5542C34.7647 13.3841 34.4811 13.3274 34.311 13.4408L31.9291 15.5392V12.1931C31.9291 11.0589 31.2485 10.0381 30.171 9.58438L25.0102 7.42931C24.7833 7.3726 24.5565 7.48602 24.5565 7.71287V9.86794C24.5565 10.7186 24.9535 11.5693 25.634 12.0797L31.0784 16.2764V25.3504L21.2105 33.9707L11.2858 25.3504V16.2764L16.7302 12.0797C17.4107 11.5693 17.8644 10.7186 17.8644 9.86794V7.71287C17.8644 7.48602 17.6376 7.3726 17.4107 7.42931L12.1932 9.58438C11.1157 10.0381 10.4351 11.0589 10.4351 12.1931V15.5392L8.05319 13.4408C7.93976 13.3274 7.6562 13.3841 7.59949 13.5542L5.38771 18.7718C4.93401 19.906 5.27428 21.2104 6.18168 22.0044L10.0381 25.3504H6.52196C6.29511 25.3504 6.12497 25.5772 6.18168 25.8041L8.16661 30.5112C8.45017 31.1918 9.0173 31.7589 9.69785 32.0425L20.1329 36.3526C20.8135 36.6361 21.6074 36.6361 22.288 36.3526L32.7231 32.0425C33.4036 31.7589 33.9707 31.1918 34.2543 30.5112L36.1825 25.8041C36.2959 25.5772 36.1258 25.3504 35.8989 25.3504H32.3828Z" fill="#EA0029"/>
<path fill-rule="evenodd" clip-rule="evenodd" d="M49.0562 21.891C49.0562 17.2406 51.7783 13.4976 59.8315 13.4976C67.8279 13.4976 70.38 17.2406 70.38 21.891C70.38 26.5981 67.8279 30.3411 59.8315 30.3411C51.7783 30.3411 49.0562 26.5981 49.0562 21.891ZM59.7748 26.3713C63.9715 26.3713 64.8789 24.3863 64.8789 21.891C64.8789 19.4524 63.9715 17.4674 59.7748 17.4674C55.5214 17.4674 54.5572 19.4524 54.5572 21.891C54.5572 24.3863 55.5214 26.3713 59.7748 26.3713ZM90.2293 14.2348C90.2293 14.008 90.4562 13.7811 90.683 13.7811H95.3334C95.5603 13.7811 95.7871 14.008 95.7871 14.2348V29.7173C95.7871 30.0008 95.5603 30.171 95.3334 30.171H90.683C90.4562 30.171 90.2293 30.0008 90.2293 29.7173V14.2348ZM105.769 13.7811C105.939 13.7811 106.109 13.8945 106.165 14.0647L110.929 24.2162L116.09 14.0647C116.147 13.8945 116.317 13.7811 116.487 13.7811H122.499C122.782 13.7811 122.952 14.008 122.952 14.2348V29.7173C122.952 30.0008 122.782 30.2277 122.499 30.2277H117.905C117.621 30.2277 117.451 30.0008 117.451 29.7173V20.5866L112.631 29.9441C112.574 30.1143 112.404 30.2277 112.234 30.2277H109.568C109.398 30.2277 109.228 30.1143 109.171 29.9441L104.691 20.7567V29.7173C104.691 30.0008 104.464 30.2277 104.237 30.2277H99.5869C99.36 30.2277 99.1332 30.0008 99.1332 29.7173V14.2348C99.1332 14.008 99.36 13.7811 99.5869 13.7811H105.769ZM78.4332 26.2011H87.5638C87.8474 26.2011 88.0742 26.4847 88.0175 26.7682L87.5638 29.8307C87.5071 30.0576 87.337 30.2277 87.1101 30.2277H73.329C73.1022 30.2277 72.8753 30.0008 72.8753 29.7173V14.2348C72.8753 14.008 73.1022 13.7811 73.329 13.7811H77.9795C78.2063 13.7811 78.4332 14.008 78.4332 14.2348V26.2011ZM138.321 13.7811C143.709 13.7811 145.41 16.3332 145.41 19.4524C145.41 22.6282 143.709 25.1236 138.321 25.1236H132.196V29.7173C132.196 30.0008 132.026 30.2277 131.743 30.2277H127.149C126.866 30.2277 126.695 30.0008 126.695 29.7173V14.2348C126.695 14.008 126.866 13.7811 127.149 13.7811H138.321ZM132.253 17.8077V21.1537H138.265C139.626 21.1537 139.909 20.4165 139.909 19.4524C139.909 18.4882 139.626 17.8077 138.265 17.8077H132.253ZM206.093 13.7811C206.376 13.7811 206.603 14.0647 206.546 14.3482L206.093 17.0704C206.036 17.2973 205.866 17.4674 205.639 17.4674H200.195V29.7173C200.195 30.0008 199.968 30.2277 199.684 30.2277H195.09C194.864 30.2277 194.637 30.0008 194.637 29.7173V17.4674H188.625C188.398 17.4674 188.172 17.2973 188.172 17.0137V14.2348C188.172 14.008 188.398 13.7811 188.625 13.7811H206.093Z" fill="white"/>
<path fill-rule="evenodd" clip-rule="evenodd" d="M160.666 13.7811C165.09 13.7811 166.451 15.5392 166.451 17.751C166.451 19.2255 165.827 20.5299 164.125 21.2104C166.791 21.8343 167.698 23.5356 167.698 25.5773C167.698 28.1293 166.281 30.171 161.8 30.171H148.359C148.076 30.171 147.906 30.0009 147.906 29.7173V14.2348C147.906 14.008 148.076 13.7811 148.359 13.7811H160.666ZM160.779 26.4847C161.914 26.4847 162.141 25.9176 162.141 25.1236C162.141 24.3296 161.914 23.7625 160.779 23.7625C160.704 23.7625 160.647 23.7625 160.609 23.7625H153.35V26.4847H160.609C160.647 26.4847 160.704 26.4847 160.779 26.4847ZM160.893 18.7718C160.893 18.0346 160.666 17.4674 159.702 17.4674H153.35V20.0762H159.702C160.666 20.0195 160.893 19.5091 160.893 18.7718ZM185.79 13.7811C186.073 13.7811 186.243 14.008 186.243 14.2348V17.0137C186.243 17.2406 186.073 17.4674 185.79 17.4674H175.638V20.0762H182.784C183.067 20.0762 183.294 20.303 183.238 20.5866L182.784 23.3655C182.784 23.5924 182.557 23.7625 182.33 23.7625H175.638V26.5414H185.79C186.073 26.5414 186.243 26.7115 186.243 26.9951V29.7173C186.243 30.0009 186.073 30.171 185.79 30.171H170.591C170.307 30.171 170.137 30.0009 170.137 29.7173V14.2348C170.137 14.008 170.307 13.7811 170.591 13.7811H185.79Z" fill="white"/>
</g>
<defs>
<clipPath id="clip0_126_1262">
<rect width="207" height="42.5342" fill="white"/>
</clipPath>
</defs>
</svg>
